<?xml version="1.0" standalone="no"?>
<!DOCTYPE svg PUBLIC "-//W3C//DTD SVG 20010904//EN"
 "http://www.w3.org/TR/2001/REC-SVG-20010904/DTD/svg10.dtd">
<svg version="1.0" xmlns="http://www.w3.org/2000/svg"
 width="1000.000000pt" height="667.000000pt" viewBox="0 0 1000.000000 667.000000"
 preserveAspectRatio="xMidYMid meet">

<g transform="translate(0.000000,667.000000) scale(0.100000,-0.100000)"
fill="#000000" stroke="none">
<path d="M0 3335 l0 -3335 5000 0 5000 0 0 2215 0 2215 -22 4 c-13 3 -66 8
-118 11 -52 3 -113 8 -135 10 -22 2 -71 6 -110 10 -38 3 -88 8 -110 10 -22 3
-76 7 -120 10 -85 6 -231 18 -405 35 -58 5 -141 12 -185 15 -44 4 -153 13
-243 21 -204 18 -256 18 -291 0 -52 -27 -64 -60 -100 -266 -145 -824 -242
-1405 -366 -2185 -52 -330 -97 -614 -100 -630 -3 -18 1 -39 10 -52 13 -19 13
-22 -1 -27 -33 -13 -37 -7 -31 52 32 306 480 2963 513 3041 21 50 61 89 103
101 25 7 169 -2 540 -35 278 -24 646 -55 816 -70 171 -14 320 -27 333 -29 l22
-3 0 1108 0 1109 -5000 0 -5000 0 0 -3335z m3762 2293 c-7 -7 -12 -8 -12 -2 0
14 12 26 19 19 2 -3 -1 -11 -7 -17z m-90 -140 c-30 -62 -57 -108 -59 -101 -6
17 96 213 111 213 1 0 -22 -51 -52 -112z m-217 -148 c3 -5 1 -10 -4 -10 -6 0
-11 5 -11 10 0 6 2 10 4 10 3 0 8 -4 11 -10z m1190 -60 c3 -5 2 -10 -4 -10 -5
0 -13 5 -16 10 -3 6 -2 10 4 10 5 0 13 -4 16 -10z m-65 -327 c-29 -53 -59 -94
-49 -68 17 41 65 125 72 125 5 0 -6 -26 -23 -57z m-252 -128 c215 -106 354
-319 378 -580 6 -72 6 -74 -15 -68 -17 4 -21 1 -21 -17 0 -17 5 -21 19 -17 17
4 18 0 14 -37 -8 -67 -33 -157 -60 -219 -23 -51 -27 -55 -39 -40 -10 14 -15
15 -24 6 -15 -13 -5 -33 16 -33 11 0 6 -13 -18 -47 -83 -122 -198 -212 -340
-265 -78 -30 -92 -32 -218 -32 l-135 -1 -86 57 c-101 67 -172 139 -162 164 5
13 2 16 -9 12 -10 -4 -20 3 -29 20 -8 15 -17 29 -20 32 -4 3 -21 35 -38 72
-44 95 -69 226 -63 332 2 28 3 29 22 11 11 -10 28 -15 40 -12 23 6 23 6 10
-27 -5 -14 -16 -26 -24 -26 -10 0 -13 6 -10 15 4 9 0 15 -9 15 -25 0 -28 -16
-7 -35 55 -50 121 77 74 143 -19 27 -48 28 -74 2 l-21 -21 7 28 c43 198 104
293 104 163 0 -53 -2 -60 -20 -60 -11 0 -20 -4 -20 -10 0 -5 23 -10 50 -10 28
0 50 5 50 10 0 6 -7 10 -15 10 -12 0 -15 15 -15 75 l0 75 -26 -6 -26 -7 36 54
c43 65 134 159 152 159 7 0 21 11 30 25 9 14 20 22 25 20 4 -3 18 4 29 15 17
17 24 19 36 9 13 -11 18 -6 15 14 -1 4 15 15 34 23 74 31 143 43 238 42 89 0
103 -3 165 -33z m-2464 -256 c-3 -6 -14 -43 -24 -82 -16 -68 -17 -70 -21 -35
-3 22 -1 34 5 31 5 -4 7 1 3 11 -6 16 26 86 39 86 3 0 2 -5 -2 -11z m150 -269
c-10 -16 -20 -27 -22 -25 -5 5 26 55 34 55 3 0 -3 -13 -12 -30z m124 -47 c-8
-10 -19 -30 -25 -45 -9 -20 -17 -25 -32 -21 -20 5 -19 7 10 44 17 22 38 39 46
39 14 0 14 -2 1 -17z m-170 -52 c-12 -20 -29 -58 -39 -86 -17 -46 -18 -48 -19
-18 0 41 59 171 70 153 5 -8 0 -28 -12 -49z m1587 38 c11 -16 -4 -59 -20 -59
-10 0 -15 11 -15 35 0 35 20 49 35 24z m-2015 -766 c-11 -17 -11 -17 -6 0 3
10 7 28 7 40 2 22 2 22 6 0 2 -12 -1 -30 -7 -40z m2035 47 c8 -13 -5 -30 -82
-116 -34 -38 -74 -82 -89 -99 l-26 -30 28 40 c15 22 38 54 51 71 13 17 23 35
23 41 0 13 70 103 81 103 4 0 11 -4 14 -10z m1058 -230 c16 -25 36 -50 44 -57
8 -6 10 -13 6 -16 -12 -8 -104 134 -95 147 4 7 8 3 10 -9 3 -11 18 -40 35 -65z
m-2095 19 c-9 -6 -6 -9 10 -9 13 0 20 4 17 10 -3 6 3 10 14 10 12 0 21 -4 21
-9 0 -5 35 -16 78 -25 148 -32 283 -68 345 -92 58 -24 113 -37 332 -83 128
-27 531 -73 655 -75 58 0 108 -5 112 -11 15 -20 9 -140 -8 -163 -9 -13 -13
-26 -10 -29 3 -3 2 -11 -3 -17 -5 -6 -11 -22 -13 -36 -2 -19 2 -26 19 -28 12
-2 24 -10 27 -18 4 -11 -9 -14 -71 -14 -42 0 -104 4 -137 9 -34 6 -122 17
-196 26 -186 23 -409 60 -505 84 -276 69 -470 122 -481 132 -7 6 -18 8 -24 4
-5 -3 -10 -3 -10 2 0 4 -21 9 -45 11 -25 1 -62 10 -83 20 -44 21 -49 37 -58
205 -7 109 -6 117 10 111 14 -5 15 -9 4 -15z m2162 -119 c0 -5 -5 -10 -11 -10
-5 0 -7 5 -4 10 3 6 8 10 11 10 2 0 4 -4 4 -10z m-3555 -24 l60 -14 -60 0
c-33 0 -82 6 -110 13 l-50 13 50 0 c28 1 77 -5 110 -12z m-184 -63 c13 -16 12
-17 -3 -4 -10 7 -18 15 -18 17 0 8 8 3 21 -13z m-33 -28 c-3 -3 -9 2 -12 12
-6 14 -5 15 5 6 7 -7 10 -15 7 -18z m42 -140 c13 -14 21 -25 18 -25 -2 0 -15
11 -28 25 -13 14 -21 25 -18 25 2 0 15 -11 28 -25z m1847 -94 c122 -31 217
-48 318 -55 50 -4 122 -13 160 -21 39 -8 86 -17 105 -19 19 -2 62 -8 95 -14
33 -5 69 -10 80 -10 11 -1 70 -8 130 -16 79 -12 392 -48 481 -56 1 0 5 -17 8
-37 4 -21 25 -100 47 -176 21 -77 39 -143 39 -148 0 -16 -141 -10 -250 11
-106 19 -322 46 -395 49 -49 1 -340 39 -375 48 l-25 6 30 8 c21 5 8 6 -40 6
-77 -2 -268 23 -415 55 -52 11 -122 22 -155 24 -33 3 -74 11 -91 19 -29 14
-32 19 -42 97 -18 132 -25 225 -18 244 6 15 19 16 119 12 65 -3 146 -15 194
-27z m80 23 c-3 -3 -12 -4 -19 -1 -8 3 -5 6 6 6 11 1 17 -2 13 -5z m56 -11
c-7 -2 -19 -2 -25 0 -7 3 -2 5 12 5 14 0 19 -2 13 -5z m134 -9 c7 3 13 1 13
-3 0 -5 8 -7 19 -4 10 3 22 -1 26 -8 6 -9 -5 -11 -52 -6 -73 8 -100 17 -82 28
7 4 24 3 37 -2 14 -6 31 -8 39 -5z m108 -24 c3 -5 -1 -10 -9 -10 -8 0 -18 5
-21 10 -3 6 1 10 9 10 8 0 18 -4 21 -10z m61 -18 c-10 -2 -22 0 -28 6 -6 6 0
7 19 4 21 -5 23 -7 9 -10z m-2291 -32 c10 -11 16 -20 13 -20 -3 0 -13 9 -23
20 -10 11 -16 20 -13 20 3 0 13 -9 23 -20z m0 -50 c3 -5 2 -10 -4 -10 -5 0
-13 5 -16 10 -3 6 -2 10 4 10 5 0 13 -4 16 -10z m-15 -45 c19 -19 32 -35 29
-35 -3 0 -20 16 -39 35 -19 19 -32 35 -29 35 3 0 20 -16 39 -35z m100 -35 c0
-5 -2 -10 -4 -10 -3 0 -8 5 -11 10 -3 6 -1 10 4 10 6 0 11 -4 11 -10z m-90
-35 c13 -14 21 -25 18 -25 -2 0 -15 11 -28 25 -13 14 -21 25 -18 25 2 0 15
-11 28 -25z m-14 -37 l29 -33 -32 29 c-31 28 -38 36 -30 36 2 0 16 -15 33 -32z
m99 22 c3 -5 1 -10 -4 -10 -6 0 -11 5 -11 10 0 6 2 10 4 10 3 0 8 -4 11 -10z
m-90 -90 c10 -11 16 -20 13 -20 -3 0 -13 9 -23 20 -10 11 -16 20 -13 20 3 0
13 -9 23 -20z m135 0 c0 -5 -5 -10 -11 -10 -5 0 -7 5 -4 10 3 6 8 10 11 10 2
0 4 -4 4 -10z m1629 -41 c-8 -4 -11 -9 -9 -11 18 -12 80 -31 105 -32 17 -1 35
-4 41 -8 7 -4 17 -1 24 7 7 8 17 15 23 15 5 0 2 -9 -8 -20 -14 -16 -15 -20 -4
-20 8 0 19 4 25 10 11 11 134 -9 134 -22 0 -4 17 -8 38 -8 20 0 76 -6 123 -13
48 -8 96 -10 107 -6 11 4 49 4 84 -1 35 -5 133 -16 218 -25 85 -9 218 -30 295
-46 77 -16 167 -34 200 -40 35 -6 65 -17 73 -27 10 -12 13 -54 11 -152 -2
-117 0 -135 14 -138 21 -4 26 -22 28 -112 l2 -75 -27 -3 c-32 -4 -130 16 -291
59 -178 47 -605 139 -640 138 -39 -1 49 -26 225 -64 155 -33 279 -62 460 -109
30 -7 82 -20 115 -27 89 -20 113 -56 83 -122 -15 -32 -48 -35 -124 -12 -27 8
-83 22 -124 31 -41 9 -87 22 -102 30 -15 8 -40 14 -55 14 -15 1 -46 7 -68 16
-22 8 -59 17 -83 20 -24 3 -112 23 -195 45 -206 54 -229 60 -250 64 -10 2 -32
9 -50 14 -18 6 -86 27 -152 47 -66 20 -138 42 -159 48 -31 10 -42 19 -48 42
-12 42 0 86 20 80 32 -9 92 -18 92 -14 0 3 -31 15 -70 27 l-70 22 0 43 c0 24
-3 65 -7 91 -6 47 -6 48 18 41 59 -16 242 -66 329 -89 52 -14 133 -33 180 -41
47 -8 123 -22 170 -30 46 -8 86 -13 88 -11 4 3 -78 22 -225 50 -43 9 -100 20
-128 26 -27 5 -138 36 -245 68 -222 67 -207 54 -209 183 -1 58 1 66 15 61 12
-4 13 -7 3 -14z m-1769 -124 c13 -14 21 -25 18 -25 -2 0 -15 11 -28 25 -13 14
-21 25 -18 25 2 0 15 -11 28 -25z m90 -75 c0 -5 -2 -10 -4 -10 -3 0 -8 5 -11
10 -3 6 -1 10 4 10 6 0 11 -4 11 -10z m-79 -47 c13 -16 12 -17 -3 -4 -10 7
-18 15 -18 17 0 8 8 3 21 -13z m-16 -43 c10 -11 16 -20 13 -20 -3 0 -13 9 -23
20 -10 11 -16 20 -13 20 3 0 13 -9 23 -20z m0 -110 c10 -11 16 -20 13 -20 -3
0 -13 9 -23 20 -10 11 -16 20 -13 20 3 0 13 -9 23 -20z m0 -110 c10 -11 16
-20 13 -20 -3 0 -13 9 -23 20 -10 11 -16 20 -13 20 3 0 13 -9 23 -20z m-5 -55
c13 -14 21 -25 18 -25 -2 0 -15 11 -28 25 -13 14 -21 25 -18 25 2 0 15 -11 28
-25z m1850 -35 c74 -16 221 -49 325 -74 105 -25 224 -53 265 -62 41 -9 98 -22
125 -29 100 -27 141 -36 170 -39 17 -2 141 -31 276 -65 135 -34 264 -61 286
-61 l40 0 6 -112 c8 -159 9 -262 2 -291 l-7 -24 -61 19 c-78 25 -851 218 -871
218 -16 0 -96 24 -131 40 -11 5 -31 11 -45 14 -14 3 -54 12 -90 21 -36 8 -103
22 -150 31 -47 8 -88 20 -91 26 -4 6 -19 8 -35 4 -21 -5 -25 -4 -14 4 13 8 12
10 -5 11 -11 1 -24 1 -29 0 -13 -3 -99 31 -113 43 -8 7 -12 70 -15 189 -3 154
-1 176 12 171 8 -4 76 -19 150 -34z m-1842 -35 c-3 -3 -9 2 -12 12 -6 14 -5
15 5 6 7 -7 10 -15 7 -18z m2138 -1 c96 -24 144 -44 74 -29 -68 14 -205 54
-189 54 9 1 61 -10 115 -25z m141 -40 c-3 -3 -12 -4 -19 -1 -8 3 -5 6 6 6 11
1 17 -2 13 -5z m-2272 -14 c3 -5 1 -10 -4 -10 -6 0 -11 5 -11 10 0 6 2 10 4
10 3 0 8 -4 11 -10z m108 -19 c11 -2 8 -16 -3 -15 -5 1 -18 2 -28 3 -10 0 -19
7 -19 15 0 10 6 12 21 6 12 -4 24 -8 29 -9z m2252 9 c13 -5 14 -9 5 -9 -8 0
-24 4 -35 9 -13 5 -14 9 -5 9 8 0 24 -4 35 -9z m-2170 -20 c3 -5 -3 -10 -15
-10 -12 0 -18 5 -15 10 3 6 10 10 15 10 5 0 12 -4 15 -10z m95 -4 c0 -11 -19
-15 -25 -6 -3 5 1 10 9 10 9 0 16 -2 16 -4z m-125 -26 c27 -7 25 -8 -15 -8
-25 0 -58 4 -75 8 -27 7 -25 8 15 8 25 0 59 -4 75 -8z m3249 -753 c-5 -35 -2
-41 45 -85 48 -46 63 -72 41 -72 -6 0 -30 18 -54 40 -49 46 -57 47 -94 21 -30
-21 -82 -36 -82 -23 0 16 47 53 76 61 28 7 29 11 34 77 7 88 22 115 32 59 4
-22 5 -57 2 -78z m1676 -187 l25 -8 -25 -1 c-14 0 -32 4 -40 9 -13 9 -13 10 0
9 8 -1 26 -5 40 -9z m213 -37 c-7 -2 -19 -2 -25 0 -7 3 -2 5 12 5 14 0 19 -2
13 -5z m104 -19 c-3 -3 -12 -4 -19 -1 -8 3 -5 6 6 6 11 1 17 -2 13 -5z m1383
-220 c0 -2 -9 -4 -21 -4 -11 0 -18 4 -14 10 5 8 35 3 35 -6z"/>
<path d="M4057 4826 c-9 -22 18 -40 33 -22 6 9 9 20 5 26 -9 15 -32 12 -38 -4z"/>
<path d="M4000 4810 c0 -5 5 -10 10 -10 6 0 10 5 10 10 0 6 -4 10 -10 10 -5 0
-10 -4 -10 -10z"/>
<path d="M4130 4810 c0 -5 5 -10 10 -10 6 0 10 5 10 10 0 6 -4 10 -10 10 -5 0
-10 -4 -10 -10z"/>
<path d="M3940 4800 c0 -5 5 -10 10 -10 6 0 10 5 10 10 0 6 -4 10 -10 10 -5 0
-10 -4 -10 -10z"/>
<path d="M4200 4794 c0 -8 5 -12 10 -9 6 3 10 10 10 16 0 5 -4 9 -10 9 -5 0
-10 -7 -10 -16z"/>
<path d="M4260 4780 c0 -5 5 -10 10 -10 6 0 10 5 10 10 0 6 -4 10 -10 10 -5 0
-10 -4 -10 -10z"/>
<path d="M4003 4766 c-33 -9 -45 -26 -19 -26 10 0 15 -16 18 -57 2 -47 0 -57
-14 -61 -24 -6 -23 -22 1 -22 19 0 20 -9 23 -152 2 -84 2 -155 1 -156 -1 -2
-23 37 -50 87 -26 50 -54 91 -61 91 -8 0 -12 -3 -10 -7 3 -7 82 -170 119 -245
10 -20 2 -48 -13 -48 -6 0 -8 10 -5 23 5 18 2 22 -16 23 -12 1 -78 9 -147 18
-123 16 -198 13 -203 -9 -1 -5 18 -17 43 -25 25 -8 48 -19 51 -24 4 -5 11 -6
16 -3 4 3 62 -1 127 -9 147 -17 156 -24 156 -118 0 -56 2 -64 16 -59 13 5 15
17 12 64 l-4 59 31 0 32 0 2 -67 c2 -70 6 -83 22 -83 7 0 10 28 8 74 -3 60 0
78 14 94 9 10 17 24 17 31 0 7 4 10 9 7 5 -3 50 3 100 14 51 11 96 18 102 15
5 -4 9 -2 9 2 0 5 35 16 78 26 42 10 97 27 122 39 l45 21 -40 8 c-76 15 -146
9 -302 -26 -86 -19 -159 -35 -162 -35 -3 0 -8 80 -10 178 -1 97 -5 180 -8 185
-2 4 9 7 26 7 25 0 30 5 36 31 8 35 -3 54 -12 21 -3 -15 -13 -22 -29 -22 -33
0 -30 11 11 47 40 36 43 55 15 83 -25 25 -52 26 -73 2 -20 -22 -21 -36 -5 -62
15 -24 0 -73 -24 -78 -15 -3 -18 8 -20 75 l-3 79 -32 -10z m133 -21 c8 -20 -4
-65 -16 -65 -6 0 -10 16 -10 36 0 24 -4 33 -12 28 -7 -4 -8 -3 -4 4 10 17 36
15 42 -3z m-38 -331 l4 -184 -30 11 -29 10 -6 107 c-4 59 -7 139 -7 178 l0 70
32 -4 33 -4 3 -184z m331 -149 c-8 -7 -241 -56 -252 -52 -5 1 42 15 104 29
113 25 157 32 148 23z m-544 -66 c22 -9 -77 -1 -140 12 -26 5 -11 5 40 2 44
-3 89 -10 100 -14z"/>
<path d="M4060 4500 c0 -5 5 -10 10 -10 6 0 10 5 10 10 0 6 -4 10 -10 10 -5 0
-10 -4 -10 -10z"/>
<path d="M4320 4750 c0 -5 5 -10 10 -10 6 0 10 5 10 10 0 6 -4 10 -10 10 -5 0
-10 -4 -10 -10z"/>
<path d="M4373 4734 c-7 -19 11 -39 26 -30 16 10 13 33 -4 40 -9 3 -18 -1 -22
-10z"/>
<path d="M3763 4693 c-26 -5 -31 -23 -8 -23 12 0 15 -13 15 -60 0 -53 -2 -60
-20 -60 -11 0 -20 -4 -20 -10 0 -6 38 -10 95 -10 63 0 95 4 95 11 0 6 -7 9
-15 5 -13 -4 -15 8 -15 75 l0 79 -27 -6 c-37 -9 -53 -24 -25 -24 20 0 22 -5
22 -60 0 -60 0 -60 -30 -60 l-30 0 7 75 c6 80 8 78 -44 68z"/>
<path d="M4430 4680 c0 -5 5 -10 10 -10 6 0 10 5 10 10 0 6 -4 10 -10 10 -5 0
-10 -4 -10 -10z"/>
<path d="M4338 4673 c-33 -5 -36 -18 -7 -26 15 -4 20 -11 15 -22 -3 -9 -6 -34
-6 -55 0 -30 -4 -39 -22 -45 -21 -7 -20 -8 10 -12 18 -2 45 -2 60 0 24 4 25 5
7 11 -18 6 -20 14 -17 81 2 41 0 74 -5 74 -4 -1 -20 -4 -35 -6z"/>
<path d="M4480 4640 c0 -5 5 -10 10 -10 6 0 10 5 10 10 0 6 -4 10 -10 10 -5 0
-10 -4 -10 -10z"/>
<path d="M4530 4590 c0 -5 5 -10 10 -10 6 0 10 5 10 10 0 6 -4 10 -10 10 -5 0
-10 -4 -10 -10z"/>
<path d="M4570 4540 c0 -5 5 -10 10 -10 6 0 10 5 10 10 0 6 -4 10 -10 10 -5 0
-10 -4 -10 -10z"/>
<path d="M4455 4500 c-19 -21 -14 -50 9 -50 23 0 28 18 9 29 -17 9 -17 10 0
16 24 10 47 -1 47 -23 0 -10 -18 -37 -40 -60 -22 -22 -40 -46 -40 -52 0 -6 23
-10 54 -10 52 0 54 1 58 30 5 31 -6 41 -15 16 -5 -14 -67 -28 -67 -16 0 4 18
19 40 34 32 21 40 32 40 56 0 48 -61 68 -95 30z"/>
<path d="M3666 4488 c-9 -13 -16 -43 -16 -69 0 -39 5 -51 26 -68 44 -35 84 2
84 76 0 48 -23 83 -55 83 -13 0 -31 -10 -39 -22z m64 -57 c0 -50 -19 -89 -38
-77 -15 9 -16 101 -1 127 17 33 39 5 39 -50z"/>
<path d="M4601 4501 c-15 -10 -8 -41 9 -41 15 0 25 29 14 40 -5 5 -15 5 -23 1z"/>
<path d="M3960 4489 c0 -5 5 -7 10 -4 6 3 10 8 10 11 0 2 -4 4 -10 4 -5 0 -10
-5 -10 -11z"/>
<path d="M4190 4469 c0 -5 5 -7 10 -4 6 3 10 8 10 11 0 2 -4 4 -10 4 -5 0 -10
-5 -10 -11z"/>
<path d="M4220 4460 c0 -5 5 -10 10 -10 6 0 10 5 10 10 0 6 -4 10 -10 10 -5 0
-10 -4 -10 -10z"/>
<path d="M3840 4419 c0 -5 5 -7 10 -4 6 3 10 8 10 11 0 2 -4 4 -10 4 -5 0 -10
-5 -10 -11z"/>
<path d="M4630 4420 c0 -5 5 -10 10 -10 6 0 10 5 10 10 0 6 -4 10 -10 10 -5 0
-10 -4 -10 -10z"/>
<path d="M3790 4370 c0 -5 5 -10 10 -10 6 0 10 5 10 10 0 6 -4 10 -10 10 -5 0
-10 -4 -10 -10z"/>
<path d="M4320 4359 c0 -5 5 -7 10 -4 6 3 10 8 10 11 0 2 -4 4 -10 4 -5 0 -10
-5 -10 -11z"/>
<path d="M4655 4361 c-3 -5 -1 -12 5 -16 5 -3 10 1 10 9 0 18 -6 21 -15 7z"/>
<path d="M3770 4340 c0 -5 5 -10 10 -10 6 0 10 5 10 10 0 6 -4 10 -10 10 -5 0
-10 -4 -10 -10z"/>
<path d="M4340 4329 c0 -5 5 -7 10 -4 6 3 10 8 10 11 0 2 -4 4 -10 4 -5 0 -10
-5 -10 -11z"/>
<path d="M4350 4300 c0 -5 5 -10 10 -10 6 0 10 5 10 10 0 6 -4 10 -10 10 -5 0
-10 -4 -10 -10z"/>
<path d="M4670 4290 c0 -5 5 -10 10 -10 6 0 10 5 10 10 0 6 -4 10 -10 10 -5 0
-10 -4 -10 -10z"/>
<path d="M3745 4280 c-3 -5 -1 -10 4 -10 6 0 11 5 11 10 0 6 -2 10 -4 10 -3 0
-8 -4 -11 -10z"/>
<path d="M4539 4219 c-16 -16 -18 -23 -9 -35 16 -18 32 -7 25 17 -5 15 -1 19
14 19 17 0 21 -6 21 -30 0 -23 -4 -30 -20 -30 -11 0 -20 -4 -20 -10 0 -5 9
-10 20 -10 15 0 20 -7 20 -29 0 -29 -14 -42 -36 -34 -7 2 -10 13 -7 23 4 14 0
20 -11 20 -19 0 -21 -31 -4 -48 18 -18 63 -14 81 6 21 23 21 36 1 56 -14 15
-14 17 0 32 24 24 18 42 -21 63 -29 15 -30 14 -54 -10z"/>
<path d="M4370 4160 c0 -5 5 -10 10 -10 6 0 10 5 10 10 0 6 -4 10 -10 10 -5 0
-10 -4 -10 -10z"/>
<path d="M4375 4130 c-3 -5 -1 -10 4 -10 6 0 11 5 11 10 0 6 -2 10 -4 10 -3 0
-8 -4 -11 -10z"/>
<path d="M4670 4090 c0 -5 5 -10 10 -10 6 0 10 5 10 10 0 6 -4 10 -10 10 -5 0
-10 -4 -10 -10z"/>
<path d="M4660 4020 c0 -5 5 -10 10 -10 6 0 10 5 10 10 0 6 -4 10 -10 10 -5 0
-10 -4 -10 -10z"/>
<path d="M3760 4010 c0 -5 5 -10 10 -10 6 0 10 5 10 10 0 6 -4 10 -10 10 -5 0
-10 -4 -10 -10z"/>
<path d="M4325 4000 c-3 -5 1 -10 10 -10 9 0 13 5 10 10 -3 6 -8 10 -10 10 -2
0 -7 -4 -10 -10z"/>
<path d="M3586 3974 c-18 -18 -21 -50 -5 -59 7 -5 5 -13 -6 -25 -22 -25 -16
-51 16 -69 24 -13 29 -13 53 2 28 19 35 54 14 75 -9 9 -9 15 0 24 18 18 14 46
-7 58 -27 14 -47 13 -65 -6z m58 -13 c9 -14 -4 -41 -19 -41 -17 0 -38 27 -30
40 8 12 42 13 49 1z m-4 -86 c17 -20 5 -45 -20 -45 -23 0 -35 22 -26 45 7 19
30 19 46 0z"/>
<path d="M3780 3980 c0 -5 5 -10 10 -10 6 0 10 5 10 10 0 6 -4 10 -10 10 -5 0
-10 -4 -10 -10z"/>
<path d="M4460 3939 c-45 -57 -47 -72 -7 -77 31 -4 36 -19 10 -30 -13 -4 -7
-8 22 -13 22 -4 44 -3 50 2 5 6 2 9 -8 9 -9 0 -17 7 -17 15 0 8 7 15 15 15 8
0 15 5 15 10 0 6 -7 10 -16 10 -12 0 -15 10 -13 50 2 27 0 52 -3 56 -4 3 -25
-18 -48 -47z m20 -27 c0 -21 -5 -28 -20 -28 -24 0 -24 1 -2 31 22 31 22 31 22
-3z"/>
<path d="M4640 3960 c0 -5 5 -10 10 -10 6 0 10 5 10 10 0 6 -4 10 -10 10 -5 0
-10 -4 -10 -10z"/>
<path d="M3800 3950 c0 -5 5 -10 10 -10 6 0 10 5 10 10 0 6 -4 10 -10 10 -5 0
-10 -4 -10 -10z"/>
<path d="M4285 3940 c-3 -5 -1 -10 4 -10 6 0 11 5 11 10 0 6 -2 10 -4 10 -3 0
-8 -4 -11 -10z"/>
<path d="M3850 3899 c0 -5 5 -7 10 -4 6 3 10 8 10 11 0 2 -4 4 -10 4 -5 0 -10
-5 -10 -11z"/>
<path d="M4615 3890 c3 -5 8 -10 11 -10 2 0 4 5 4 10 0 6 -5 10 -11 10 -5 0
-7 -4 -4 -10z"/>
<path d="M3880 3879 c0 -5 5 -7 10 -4 6 3 10 8 10 11 0 2 -4 4 -10 4 -5 0 -10
-5 -10 -11z"/>
<path d="M4205 3880 c-3 -5 -1 -10 4 -10 6 0 11 5 11 10 0 6 -2 10 -4 10 -3 0
-8 -4 -11 -10z"/>
<path d="M4170 3860 c0 -5 5 -10 10 -10 6 0 10 5 10 10 0 6 -4 10 -10 10 -5 0
-10 -4 -10 -10z"/>
<path d="M3940 3849 c0 -5 5 -7 10 -4 6 3 10 8 10 11 0 2 -4 4 -10 4 -5 0 -10
-5 -10 -11z"/>
<path d="M4005 3840 c-3 -5 -1 -10 4 -10 6 0 11 5 11 10 0 6 -2 10 -4 10 -3 0
-8 -4 -11 -10z"/>
<path d="M4040 3834 c0 -8 5 -12 10 -9 6 4 8 11 5 16 -9 14 -15 11 -15 -7z"/>
<path d="M4286 3801 c-2 -3 -7 -26 -11 -49 l-7 -44 26 17 c14 9 30 14 36 10
16 -10 12 -72 -6 -79 -22 -9 -33 1 -27 24 4 14 0 20 -10 20 -20 0 -27 -20 -15
-42 19 -38 108 -7 108 37 0 27 -48 67 -70 60 -15 -5 -18 -3 -14 9 3 9 14 16
24 16 24 0 50 10 50 20 0 9 -79 10 -84 1z"/>
<path d="M3757 3783 c-2 -5 -7 -20 -11 -35 -7 -32 9 -39 19 -8 4 14 15 20 35
20 l29 0 -25 -45 c-25 -43 -29 -93 -9 -98 5 -1 15 21 21 48 6 28 18 64 27 82
10 18 17 34 17 38 0 8 -98 6 -103 -2z"/>
<path d="M4545 3780 c-3 -5 -1 -10 4 -10 6 0 11 5 11 10 0 6 -2 10 -4 10 -3 0
-8 -4 -11 -10z"/>
<path d="M4000 3718 c-31 -51 -22 -116 18 -137 26 -14 72 21 72 53 0 31 -33
60 -59 51 -17 -5 -20 -3 -14 12 9 25 24 43 35 43 6 0 8 -7 5 -15 -8 -18 11
-31 25 -17 16 16 -9 42 -38 42 -17 0 -31 -10 -44 -32z m58 -77 c4 -24 -15 -54
-29 -45 -11 6 -12 58 -2 68 12 12 28 0 31 -23z"/>
<path d="M4500 3730 c0 -5 5 -10 10 -10 6 0 10 5 10 10 0 6 -4 10 -10 10 -5 0
-10 -4 -10 -10z"/>
<path d="M4450 3680 c0 -5 5 -10 10 -10 6 0 10 5 10 10 0 6 -4 10 -10 10 -5 0
-10 -4 -10 -10z"/>
<path d="M3670 3654 c0 -8 5 -12 10 -9 6 3 10 10 10 16 0 5 -4 9 -10 9 -5 0
-10 -7 -10 -16z"/>
<path d="M4400 3640 c0 -5 5 -10 10 -10 6 0 10 5 10 10 0 6 -4 10 -10 10 -5 0
-10 -4 -10 -10z"/>
<path d="M3710 3620 c0 -15 5 -20 18 -18 9 2 17 10 17 18 0 8 -8 16 -17 18
-13 2 -18 -3 -18 -18z"/>
<path d="M4341 3616 c-9 -10 -8 -16 3 -25 10 -9 16 -8 25 3 9 10 8 16 -3 25
-10 9 -16 8 -25 -3z"/>
<path d="M3780 3584 c0 -8 5 -12 10 -9 6 3 10 10 10 16 0 5 -4 9 -10 9 -5 0
-10 -7 -10 -16z"/>
<path d="M4290 3569 c0 -5 5 -7 10 -4 6 3 10 8 10 11 0 2 -4 4 -10 4 -5 0 -10
-5 -10 -11z"/>
<path d="M3840 3560 c0 -5 5 -10 10 -10 6 0 10 5 10 10 0 6 -4 10 -10 10 -5 0
-10 -4 -10 -10z"/>
<path d="M4220 3550 c0 -5 5 -10 10 -10 6 0 10 5 10 10 0 6 -4 10 -10 10 -5 0
-10 -4 -10 -10z"/>
<path d="M3900 3540 c0 -5 5 -10 10 -10 6 0 10 5 10 10 0 6 -4 10 -10 10 -5 0
-10 -4 -10 -10z"/>
<path d="M4023 3534 c-8 -20 8 -36 26 -25 15 10 8 41 -9 41 -6 0 -13 -7 -17
-16z"/>
<path d="M4166 3541 c-4 -7 -5 -15 -2 -18 9 -9 19 4 14 18 -4 11 -6 11 -12 0z"/>
<path d="M3960 3530 c0 -5 5 -10 10 -10 6 0 10 5 10 10 0 6 -4 10 -10 10 -5 0
-10 -4 -10 -10z"/>
<path d="M4096 3531 c-4 -5 -2 -12 3 -15 5 -4 12 -2 15 3 4 5 2 12 -3 15 -5 4
-12 2 -15 -3z"/>
<path d="M3188 3128 c6 -6 18 -8 28 -6 14 3 12 5 -9 10 -19 3 -25 2 -19 -4z"/>
<path d="M2590 3015 c14 -8 34 -14 45 -14 13 0 8 5 -15 14 -46 18 -61 18 -30
0z"/>
<path d="M3310 2406 c0 -8 61 -12 66 -4 3 4 -11 8 -30 8 -20 0 -36 -2 -36 -4z"/>
<path d="M3440 2390 c8 -5 26 -9 40 -9 l25 1 -25 8 c-14 4 -32 8 -40 9 -13 1
-13 0 0 -9z"/>
<path d="M3538 2073 c7 -3 16 -2 19 1 4 3 -2 6 -13 5 -11 0 -14 -3 -6 -6z"/>
<path d="M3628 2053 c7 -3 16 -2 19 1 4 3 -2 6 -13 5 -11 0 -14 -3 -6 -6z"/>
<path d="M2888 2023 c6 -2 18 -2 25 0 6 3 1 5 -13 5 -14 0 -19 -2 -12 -5z"/>
<path d="M2940 2010 c8 -5 24 -10 34 -10 26 0 18 6 -19 14 -22 5 -26 4 -15 -4z"/>
<path d="M3085 1970 c11 -5 29 -8 40 -8 16 0 15 2 -5 8 -34 11 -60 11 -35 0z"/>
<path d="M3205 1940 c11 -5 27 -9 35 -9 9 0 8 4 -5 9 -11 5 -27 9 -35 9 -9 0
-8 -4 5 -9z"/>
</g>
</svg>
